<?xml version="1.0" standalone="no"?>
<!DOCTYPE svg PUBLIC "-//W3C//DTD SVG 20010904//EN"
 "http://www.w3.org/TR/2001/REC-SVG-20010904/DTD/svg10.dtd">
<svg version="1.0" xmlns="http://www.w3.org/2000/svg"
 width="1280.000000pt" height="663.000000pt" viewBox="0 0 1280.000000 663.000000"
 preserveAspectRatio="xMidYMid meet">
<metadata>
Created by potrace 1.15, written by Peter Selinger 2001-2017
</metadata>
<g transform="translate(0.000000,663.000000) scale(0.100000,-0.100000)"
fill="#ffffff" stroke="none">
<path d="M10862 6609 c-119 -25 -384 -102 -481 -139 -118 -46 -192 -92 -214
-131 -10 -19 -60 -74 -111 -124 -51 -49 -191 -198 -311 -330 -121 -132 -298
-326 -395 -430 -96 -105 -237 -261 -313 -346 -75 -86 -173 -189 -217 -228
l-80 -73 -77 -5 c-217 -15 -624 -200 -955 -435 -135 -95 -209 -166 -242 -232
-34 -66 -80 -100 -123 -90 -15 4 -77 26 -138 49 -60 24 -137 48 -170 55 -33 8
-85 26 -115 40 -115 57 -595 226 -809 286 -119 33 -196 44 -176 25 13 -11 211
-84 370 -136 72 -23 216 -76 320 -117 105 -41 199 -78 210 -82 15 -6 -6 -16
-85 -38 -83 -24 -127 -30 -210 -32 -105 -1 -105 -1 -185 40 -44 23 -199 96
-345 162 -354 160 -451 207 -475 226 -19 15 -7 16 164 10 155 -6 183 -5 179 7
-6 20 -111 60 -173 66 -56 6 -150 -11 -175 -32 -9 -7 -58 -15 -120 -18 -121
-5 -210 -32 -353 -102 -170 -85 -312 -206 -359 -305 -15 -32 -33 -98 -42 -157
-23 -144 -48 -570 -40 -679 l7 -91 -114 -38 c-219 -72 -563 -197 -583 -211
-11 -8 -41 -14 -67 -14 -58 0 -141 51 -216 133 -63 70 -75 71 -222 21 -117
-40 -183 -72 -178 -88 7 -21 74 -29 104 -12 63 35 113 57 171 75 l61 19 37
-58 c37 -58 38 -59 218 -148 100 -49 226 -104 281 -122 55 -17 107 -34 115
-37 15 -5 -187 -78 -495 -179 -93 -31 -315 -107 -493 -170 l-324 -114 -87 31
c-47 18 -121 47 -165 66 -157 67 -366 206 -381 253 -15 49 20 65 480 221 410
138 438 149 411 158 -42 15 -159 -16 -556 -148 -228 -77 -475 -153 -549 -171
-74 -18 -148 -41 -165 -51 -48 -28 -405 -159 -747 -273 -170 -57 -321 -112
-335 -121 -34 -22 -39 -39 -19 -69 37 -56 251 -211 390 -283 41 -21 75 -40 75
-43 0 -4 -51 -21 -114 -39 -127 -36 -179 -63 -174 -88 2 -11 40 -32 112 -59
59 -24 111 -45 114 -49 3 -3 -3 -12 -15 -20 -11 -8 -44 -33 -72 -57 -69 -56
-121 -88 -146 -88 -20 0 -62 -34 -270 -218 -310 -273 -611 -630 -674 -797 -29
-77 -37 -165 -18 -201 18 -35 118 -131 167 -161 63 -38 253 -59 643 -69 479
-14 784 37 2400 397 296 66 554 120 573 121 21 1 46 -7 63 -19 36 -27 159 -88
296 -148 l110 -48 105 35 c58 20 402 140 765 268 875 308 1124 390 1188 390
11 0 61 18 111 39 212 91 638 164 1116 192 306 18 1137 -4 2565 -68 471 -21
1241 -24 1400 -5 284 33 585 88 703 128 126 42 349 132 472 191 l115 54 -27
22 c-44 36 -511 285 -975 522 -103 53 -206 106 -228 117 -145 75 -177 88 -228
94 -37 4 -57 3 -57 -4 0 -5 40 -31 89 -56 93 -48 117 -68 106 -86 -11 -19 -83
-45 -187 -70 l-96 -24 -239 109 c-337 153 -513 224 -513 206 0 -13 154 -91
420 -212 129 -59 236 -114 238 -121 1 -8 -6 -22 -17 -32 -20 -18 -22 -17 -98
22 -196 101 -850 363 -977 392 -25 5 -61 21 -82 35 -20 14 -40 25 -45 25 -4 0
-20 5 -36 11 -27 10 -27 11 -8 22 11 6 55 11 100 10 94 -1 174 -26 252 -78 59
-39 130 -62 159 -51 19 7 18 8 -1 23 -11 8 -73 40 -138 71 -65 30 -114 59
-110 63 17 16 378 61 453 57 74 -4 82 -8 270 -107 107 -57 209 -114 225 -126
42 -31 84 -51 122 -58 34 -7 63 -1 63 13 0 11 -129 84 -290 165 -74 37 -137
69 -140 72 -8 7 95 96 190 165 47 33 108 82 135 108 28 25 80 72 118 104 112
96 104 120 -68 201 -60 29 -117 60 -125 70 -10 13 -15 44 -16 104 -1 72 -6 97
-29 149 -28 64 -28 85 3 66 28 -17 61 -87 73 -150 15 -85 29 -124 44 -124 7 0
27 17 43 38 28 34 32 35 44 20 7 -9 37 -26 66 -37 44 -16 54 -17 59 -5 3 7 3
73 1 146 -3 126 -5 137 -37 205 l-34 72 32 36 c50 58 42 95 -29 120 -24 8 -71
32 -104 53 -34 21 -109 60 -169 87 -154 69 -164 95 -33 81 80 -8 101 5 100 63
-2 59 -46 141 -108 199 -62 58 -120 88 -189 97 -41 5 -51 11 -71 43 -67 105
-229 217 -458 316 -62 26 -59 38 89 316 45 85 89 176 97 202 7 26 44 100 82
165 122 212 532 1037 549 1106 15 59 -44 70 -203 36z m-591 -266 c-15 -29 -70
-77 -78 -69 -4 4 11 25 34 47 46 42 59 49 44 22z m609 -8 c0 -30 -394 -771
-429 -808 -16 -16 -20 -16 -71 -1 -70 20 -80 29 -80 68 0 41 42 120 194 366
188 302 225 346 318 375 57 18 68 18 68 0z m-480 -97 c0 -6 -22 -54 -49 -107
-55 -109 -101 -217 -101 -240 0 -9 -4 -22 -9 -30 -8 -12 -13 -12 -24 -3 -33
28 -38 21 -347 -466 -85 -134 -210 -327 -277 -428 -68 -102 -123 -191 -123
-199 0 -7 -31 -55 -68 -106 -38 -52 -81 -115 -95 -140 -27 -45 -70 -159 -64
-166 2 -1 25 29 52 67 57 85 82 102 91 66 3 -14 21 -37 40 -51 19 -14 34 -30
34 -35 0 -4 -42 -34 -92 -66 -51 -31 -104 -67 -118 -80 -14 -12 -45 -25 -70
-29 -67 -10 -94 -19 -341 -116 -125 -49 -236 -89 -247 -89 -22 0 -29 18 -42
114 -11 72 -6 82 68 142 31 25 78 77 103 114 26 37 70 96 98 130 71 85 357
420 432 505 33 39 77 95 96 125 42 65 205 264 365 445 154 176 201 235 217
272 7 18 21 35 31 38 23 7 146 137 185 194 39 58 88 96 161 126 65 27 94 31
94 13z m-480 -284 c0 -16 -23 -44 -35 -44 -21 0 -19 27 3 39 19 12 32 14 32 5z
m397 -58 c-4 -9 -11 -16 -17 -16 -11 0 -14 33 -3 43 11 11 26 -10 20 -27z
m-509 -38 c-18 -26 -38 -35 -38 -16 0 18 20 38 38 38 12 0 12 -3 0 -22z m272
-298 c-23 -33 -71 -73 -78 -66 -6 7 36 63 61 81 34 23 40 18 17 -15z m-607
-80 c-51 -50 -95 -71 -57 -29 21 24 93 79 103 79 3 0 -17 -23 -46 -50z m910 9
c31 -7 57 -16 57 -22 0 -6 -40 -85 -89 -176 -49 -91 -102 -197 -117 -235 -15
-38 -43 -86 -64 -107 -44 -47 -225 -136 -295 -146 l-48 -6 55 104 c115 215
329 562 361 584 26 18 64 19 140 4z m-405 -61 c-17 -26 -58 -54 -58 -41 0 18
41 63 57 63 14 0 14 -3 1 -22z m-151 -240 c-47 -64 -103 -128 -112 -128 -3 0
9 22 26 50 34 55 119 153 126 146 3 -3 -15 -33 -40 -68z m-587 43 c0 -13 -71
-73 -78 -66 -6 6 57 75 70 75 4 0 8 -4 8 -9z m-213 -238 c-20 -20 -40 -33 -44
-29 -4 4 9 23 30 43 50 45 62 33 14 -14z m630 -80 c-37 -71 -48 -217 -21 -268
20 -39 5 -88 -43 -145 -40 -47 -78 -52 -130 -20 -25 15 -33 27 -33 48 0 32 68
178 125 267 78 121 141 195 102 118z m-699 -15 c-6 -16 -48 -43 -48 -30 0 13
28 42 42 42 5 0 8 -5 6 -12z m-139 -125 c-32 -31 -62 -53 -65 -50 -10 9 14 35
66 73 66 49 66 41 -1 -23z m1226 -2 c-21 -21 -377 -252 -382 -248 -1 2 11 29
27 61 37 72 37 84 4 96 -21 8 -25 15 -22 42 3 30 6 33 40 36 46 4 108 -22 115
-48 3 -11 11 -20 17 -20 7 0 55 22 107 50 102 53 125 61 94 31z m-1365 -31
c11 -7 4 -20 -38 -64 -35 -37 -52 -63 -52 -80 0 -14 5 -26 10 -26 6 0 37 25
70 55 33 30 62 55 65 55 14 0 -19 -42 -70 -89 -42 -38 -64 -51 -87 -51 -48 0
-175 -104 -209 -172 -8 -14 -49 -56 -91 -92 -43 -37 -85 -81 -94 -99 -35 -68
-93 -113 -182 -136 -23 -7 -57 -25 -76 -41 -18 -17 -40 -30 -48 -30 -17 0 -46
29 -62 62 -15 29 -42 36 -148 37 -49 1 -88 4 -88 9 0 4 9 15 19 24 11 9 25 35
31 57 6 25 22 48 39 60 18 13 32 35 38 58 10 45 45 70 257 187 179 100 264
141 411 204 172 73 267 96 305 72z m1633 -86 c18 -9 58 -35 90 -56 32 -22 80
-50 107 -62 66 -31 80 -44 80 -75 0 -16 10 -37 25 -51 21 -20 36 -70 20 -70
-3 0 -26 16 -51 36 -49 37 -80 41 -98 12 -8 -14 -5 -23 17 -46 18 -18 27 -39
27 -60 0 -44 -13 -40 -49 16 -17 27 -43 55 -57 63 -24 13 -28 12 -50 -14 -16
-19 -24 -40 -24 -66 0 -34 5 -41 50 -70 56 -36 139 -130 209 -235 44 -67 106
-225 93 -237 -4 -3 -78 -30 -165 -59 -182 -61 -175 -63 -229 45 -91 178 -192
309 -290 375 -47 31 -49 50 -4 50 18 0 48 5 67 11 66 21 229 103 229 114 0 7
-52 63 -115 124 -109 105 -113 110 -66 87 26 -14 77 -48 112 -76 71 -57 102
-62 107 -17 3 22 -9 40 -59 92 -34 36 -58 65 -53 65 5 0 45 -27 88 -60 44 -33
93 -62 110 -66 32 -5 86 9 86 24 0 20 -38 56 -140 132 -60 45 -110 84 -110 86
0 7 11 4 43 -12z m-172 -35 c16 -8 19 -14 11 -17 -16 -5 -92 27 -92 39 0 9 47
-3 81 -22z m-1634 -209 c-18 -26 -56 -54 -63 -47 -3 3 11 22 31 42 39 38 58
41 32 5z m1543 -10 c12 -7 12 -12 3 -21 -9 -9 -16 -9 -28 1 -29 24 -9 42 25
20z m-4802 -25 c20 -9 64 -34 97 -55 34 -22 76 -43 95 -46 19 -4 49 -17 65
-30 17 -12 287 -151 602 -308 538 -269 612 -311 589 -334 -4 -3 -55 4 -114 15
-59 12 -131 25 -161 29 -32 3 -59 13 -68 24 -9 10 -23 15 -33 13 -12 -3 -22 3
-29 16 -6 11 -17 18 -24 15 -8 -3 -37 12 -66 31 -29 20 -83 50 -119 66 -36 16
-71 37 -77 46 -7 9 -19 14 -28 10 -8 -3 -23 3 -32 13 -9 10 -31 22 -47 26 -17
3 -46 21 -65 40 -25 25 -42 34 -68 34 -46 0 -80 -17 -94 -47 -25 -55 -2 -89
41 -59 30 21 36 20 40 -5 5 -35 33 -47 67 -28 32 19 38 17 70 -28 17 -26 29
-33 55 -33 39 0 69 -29 64 -62 -4 -31 -48 -36 -92 -10 -19 11 -49 23 -67 27
-19 4 -58 21 -87 37 l-53 30 -120 -7 c-127 -8 -148 0 -86 31 78 40 88 70 20
60 -84 -11 -203 -77 -203 -112 0 -29 41 -37 169 -29 119 6 128 5 145 -13 9
-11 16 -30 14 -41 -3 -20 -4 -20 -73 4 -79 28 -99 31 -93 13 7 -21 65 -55 121
-73 29 -9 59 -19 67 -21 13 -5 13 -6 0 -14 -22 -15 -105 -45 -306 -115 l-182
-63 -91 69 c-128 96 -142 95 -56 -7 59 -70 65 -88 37 -103 -21 -11 -143 -43
-147 -39 -2 2 0 62 4 133 5 72 7 132 5 133 -1 2 -12 -29 -24 -70 -29 -102 -40
-124 -32 -63 8 54 6 157 -3 270 -3 39 1 116 9 175 l14 105 2 -75 c1 -41 5
-100 8 -130 6 -49 9 -34 30 136 29 246 36 270 91 309 23 16 66 51 94 77 57 52
70 55 125 33z m336 -19 c-4 -18 2 -29 28 -50 36 -28 24 -35 -22 -11 -32 16
-40 51 -18 73 17 17 19 15 12 -12z m364 -80 c352 -156 482 -218 482 -233 0
-24 -29 -26 -52 -4 -13 12 -77 46 -143 75 -133 58 -533 260 -497 251 12 -4
106 -44 210 -89z m4131 54 c46 -5 95 -17 109 -26 24 -16 24 -18 8 -30 -10 -7
-79 -39 -154 -70 -76 -32 -138 -59 -140 -59 -1 -1 50 -53 114 -116 64 -63 123
-127 131 -143 8 -16 33 -52 55 -80 23 -29 38 -57 35 -67 -3 -11 4 -21 19 -28
15 -6 27 -24 34 -49 5 -22 17 -46 26 -53 24 -20 92 -13 207 20 150 43 162 45
181 25 27 -26 18 -102 -15 -126 -96 -72 -1057 -311 -1419 -353 -209 -25 -285
-1 -254 79 5 13 22 16 78 16 40 0 95 7 124 15 118 35 178 142 118 212 -27 31
-25 31 -216 18 -83 -6 -98 -10 -118 -31 -13 -13 -27 -24 -32 -24 -28 0 -72 28
-125 80 -93 90 -197 157 -267 171 -32 6 -61 15 -63 19 -19 30 52 82 330 245
257 150 406 223 470 231 28 3 68 14 90 24 45 21 275 70 327 70 19 0 39 5 45
11 25 25 173 34 302 19z m-4322 -102 c28 -23 11 -27 -27 -8 -22 11 -40 23 -40
26 0 9 52 -6 67 -18z m-867 -75 c0 -16 -5 -35 -10 -43 -7 -11 -10 -4 -10 28 0
23 5 42 10 42 6 0 10 -12 10 -27z m2218 -79 c191 -72 242 -95 242 -105 0 -5
-4 -9 -8 -9 -5 0 -27 -16 -50 -35 -28 -24 -43 -47 -48 -70 -16 -86 -48 -80
-444 92 -96 42 -178 79 -182 82 -5 4 70 28 165 53 94 26 173 47 175 47 1 1 69
-24 150 -55z m3708 -40 c-22 -16 -136 -20 -136 -4 0 10 39 18 105 22 50 4 55
0 31 -18z m-1966 6 c0 -12 -106 -82 -211 -139 -53 -29 -86 -41 -116 -41 -28 0
-74 -14 -133 -40 -86 -39 -90 -40 -115 -24 -28 18 -32 36 -12 52 19 16 191 72
220 72 13 0 30 7 37 15 12 15 50 21 50 9 0 -4 -12 -18 -27 -32 -16 -15 -23
-27 -16 -29 15 -5 73 25 163 83 56 36 143 83 158 84 1 0 2 -5 2 -10z m-789
-135 c4 -61 7 -247 8 -415 3 -322 10 -393 29 -280 6 36 14 97 18 135 9 96 23
117 24 35 0 -111 19 -543 25 -587 7 -46 24 -55 57 -29 36 27 48 80 47 208 l-1
123 -25 -103 c-14 -57 -26 -102 -28 -100 -1 2 -5 72 -9 156 l-7 152 25 10 c30
11 41 46 57 184 7 56 15 105 19 109 8 9 20 -312 20 -517 0 -162 3 -176 41
-176 15 0 31 5 34 11 4 5 2 81 -4 167 -15 219 -30 556 -25 561 3 3 17 -7 32
-22 27 -28 27 -28 28 -185 1 -205 2 -222 13 -222 15 0 22 32 32 150 9 109 21
153 32 114 17 -61 20 -98 26 -281 4 -125 10 -206 17 -213 8 -8 25 -5 63 10 57
22 71 24 71 11 0 -12 -95 -52 -285 -119 -93 -33 -226 -80 -295 -105 -69 -25
-137 -48 -152 -52 -16 -3 -28 -12 -28 -19 0 -28 99 -36 124 -10 9 8 60 29 113
45 54 17 154 53 223 79 69 27 191 69 271 94 80 25 158 55 172 66 33 26 36 52
5 50 -39 -3 -42 -1 -23 20 39 44 82 10 110 -88 35 -120 96 -206 224 -317 86
-75 131 -95 131 -57 0 20 -34 54 -97 96 -23 16 -45 36 -48 46 -3 10 -33 51
-66 92 -33 40 -68 91 -79 114 -39 79 -15 194 43 204 19 3 33 16 45 40 14 29
23 36 53 38 63 5 70 -11 67 -154 -3 -116 -2 -125 19 -146 32 -32 99 -27 264
20 l133 37 -3 50 c-4 70 -19 143 -35 176 -17 34 -11 40 59 62 48 15 323 77
343 77 14 0 102 -177 102 -204 0 -41 23 -50 108 -43 88 7 252 43 276 60 12 9
17 39 22 125 7 113 12 123 32 67 6 -16 22 -61 36 -100 15 -38 33 -96 42 -129
8 -32 38 -99 66 -148 49 -87 79 -160 93 -225 6 -28 4 -33 -13 -33 -11 0 -39 7
-62 15 -23 8 -66 15 -94 15 -75 0 -995 -135 -1121 -165 -33 -7 -78 -18 -100
-22 l-40 -9 40 -26 c22 -14 66 -42 98 -62 31 -20 57 -40 57 -45 0 -5 -12 -14
-27 -19 -16 -6 -158 -57 -318 -115 -159 -57 -340 -125 -402 -151 -62 -25 -122
-46 -135 -46 -13 0 -52 -14 -88 -31 -36 -17 -90 -35 -120 -41 -30 -5 -69 -18
-86 -29 -48 -29 -85 -24 -189 30 -275 143 -535 392 -535 511 0 42 32 63 195
126 36 14 51 26 55 44 7 31 51 57 165 96 l90 32 -4 167 c-4 188 -9 219 -37
221 -10 1 -25 2 -31 3 -10 1 -13 29 -13 104 0 229 -32 541 -60 598 -22 43 -39
51 -179 84 -61 15 -111 31 -111 36 0 13 11 12 145 -16 66 -14 125 -25 132 -25
8 0 18 12 24 28 33 82 40 93 57 90 14 -3 18 -20 23 -113z m-1424 61 c117 -45
358 -151 410 -182 60 -35 76 -53 62 -70 -6 -8 -15 -14 -20 -14 -16 0 -534 259
-559 279 -24 20 -24 21 -3 21 12 0 61 -15 110 -34z m4163 -18 c-8 -89 3 -94
105 -48 84 38 101 37 156 -1 55 -39 78 -68 79 -95 0 -24 -17 -34 -61 -34 -18
0 -32 -6 -36 -16 -4 -11 -13 -13 -34 -9 -17 4 -29 2 -29 -3 0 -24 -32 -42 -64
-37 -42 8 -56 -9 -70 -87 -7 -37 -18 -65 -28 -72 -33 -21 -42 7 -51 162 -11
190 -11 196 8 232 18 36 27 38 25 8z m-6000 2 c0 -5 -4 -10 -9 -10 -5 0 -24
-3 -42 -6 l-34 -5 25 15 c29 18 60 21 60 6z m2785 -47 c41 -9 75 -22 75 -28 0
-6 -33 -27 -72 -46 l-73 -34 1 -50 c9 -295 8 -341 -3 -360 -11 -19 -12 -19
-23 10 -17 44 -29 158 -30 273 0 56 -3 102 -8 102 -4 0 -19 -62 -34 -137 l-26
-138 -1 113 c-1 63 -5 112 -10 112 -6 0 -27 -10 -47 -22 -20 -12 -35 -17 -33
-12 34 78 86 158 120 186 33 26 40 38 37 60 l-4 27 27 -20 c16 -11 62 -27 104
-36z m-245 -9 c0 -14 -22 -45 -40 -54 -26 -14 -25 0 1 34 19 24 39 34 39 20z
m441 -121 c-8 -15 -10 -10 -11 23 0 22 3 44 8 48 11 12 14 -52 3 -71z m-75 40
c20 -47 15 -590 -6 -567 -9 11 -33 561 -25 575 9 14 22 11 31 -8z m775 -20
c-47 -65 -68 -86 -79 -79 -31 19 -7 57 53 89 43 23 49 21 26 -10z m-262 -10
c25 -14 120 -74 211 -133 91 -59 179 -112 195 -117 24 -8 29 -15 27 -36 -2
-24 0 -26 36 -24 25 1 49 -6 68 -20 66 -47 134 -232 134 -362 l-1 -66 -19 23
c-11 13 -22 47 -26 80 -8 71 -18 91 -105 207 -53 72 -90 110 -161 163 -130 97
-231 161 -307 194 -87 36 -106 36 -132 -4 l-21 -33 7 53 c7 65 21 102 36 102
7 0 33 -12 58 -27z m-349 -4 c14 -24 19 -294 6 -328 -5 -14 -12 -19 -17 -14
-21 21 -39 305 -23 347 8 22 21 20 34 -5z m-608 -35 c-2 -13 -8 -24 -13 -24
-10 0 -12 31 -3 55 10 24 22 0 16 -31z m358 -181 c0 -217 -6 -261 -32 -235
-26 26 -19 400 8 444 19 30 24 -14 24 -209z m-785 136 c15 -14 -13 -11 -43 5
-15 8 -36 24 -47 37 -19 21 -16 21 30 -5 28 -16 54 -33 60 -37z m-1024 0 c25
-17 41 -59 23 -59 -25 0 -73 44 -74 68 0 18 18 15 51 -9z m-1041 -20 c10 -18
9 -20 -12 -17 -12 2 -24 11 -26 21 -5 24 25 22 38 -4z m1422 -19 c34 -11 76
-20 91 -20 15 0 41 -7 57 -15 16 -8 95 -25 175 -37 80 -12 142 -25 138 -29
-10 -8 -475 -173 -674 -238 -192 -62 -259 -73 -387 -60 -124 12 -244 34 -279
51 -34 17 -66 60 -58 80 4 10 24 18 53 23 26 3 108 29 182 57 289 108 580 204
632 208 3 0 35 -9 70 -20z m4862 -1 c-32 -35 -124 -75 -124 -53 0 24 24 44 53
44 18 0 42 7 53 15 28 22 40 18 18 -6z m-3766 -21 c-3 -7 -65 -34 -139 -59
-74 -25 -145 -51 -157 -58 -13 -7 -26 -11 -28 -8 -2 2 5 25 17 51 l21 48 22
-21 c28 -26 36 -26 36 -1 0 28 37 40 104 33 46 -5 57 -3 62 11 7 19 68 23 62
4z m677 -158 c-8 -70 -14 -90 -27 -90 -12 0 -5 192 8 225 13 30 26 -67 19
-135z m3206 122 c-16 -30 -14 -32 19 -25 38 7 39 -9 4 -44 -26 -26 -27 -26
-40 -8 -20 27 -18 82 3 94 23 12 27 7 14 -17z m-2939 -177 c1 -70 -2 -109 -13
-130 -13 -29 -14 -25 -17 70 -2 55 0 129 4 165 7 63 7 64 16 30 5 -19 9 -80
10 -135z m-908 113 c3 -13 6 -77 6 -143 0 -146 7 -173 65 -250 52 -69 56 -94
17 -117 -39 -23 -179 -78 -200 -78 -10 0 -26 16 -36 35 -11 19 -46 60 -78 91
-32 31 -58 57 -56 59 2 1 41 20 88 42 114 54 121 62 131 174 13 142 28 209 48
209 5 0 11 -10 15 -22z m-419 -17 c0 -24 -55 -50 -298 -136 -128 -46 -257 -93
-287 -105 -30 -12 -84 -30 -120 -40 -91 -25 -398 -137 -427 -155 -30 -20 -29
-36 2 -65 35 -33 44 -74 37 -175 -4 -72 -3 -87 9 -83 8 3 18 18 23 34 19 67
36 94 56 94 19 0 20 -4 14 -68 l-7 -68 68 -60 c110 -95 201 -254 193 -334 -3
-29 -9 -33 -68 -55 -36 -13 -90 -32 -120 -43 -69 -25 -290 -75 -298 -67 -7 7
36 292 52 348 16 56 30 50 38 -17 4 -33 10 -61 13 -64 3 -3 16 0 29 6 32 14
43 69 28 139 -20 95 -63 129 -124 98 -39 -19 -62 -19 -77 -1 -10 12 -3 21 35
50 58 44 78 72 69 94 -5 14 -9 11 -20 -14 -16 -39 -32 -49 -50 -34 -28 23 -14
103 17 106 7 1 19 2 26 3 15 1 16 74 1 104 -6 12 -20 32 -31 44 -11 12 -17 27
-13 33 12 19 106 57 197 80 77 20 179 57 455 166 62 24 120 44 129 44 9 0 63
20 120 45 56 25 111 45 121 45 10 1 47 16 83 35 68 36 125 43 125 16z m298
-107 c-6 -42 -16 -81 -21 -86 -8 -8 -43 -1 -116 22 -58 18 -106 36 -106 40 0
3 31 16 69 28 39 13 92 38 118 56 27 18 52 29 57 24 6 -5 6 -36 -1 -84z m579
-272 l-9 -37 -12 28 c-14 36 -14 82 1 242 l13 130 8 -163 c6 -100 5 -177 -1
-200z m3137 283 c37 -83 49 -177 22 -160 -9 5 -54 127 -69 187 -19 71 12 53
47 -27z m-2336 -2 c158 -149 206 -219 215 -314 6 -63 -8 -82 -54 -73 -33 6
-34 5 -34 -24 0 -36 -13 -48 -29 -28 -21 25 -24 107 -7 156 9 25 16 57 16 71
0 29 -34 78 -46 67 -4 -4 -17 -43 -30 -85 l-23 -78 6 110 c7 126 1 145 -66
210 -23 21 -41 43 -41 47 0 20 28 3 93 -59z m2220 -49 c5 -30 -2 -64 -13 -64
-7 0 -37 79 -57 150 -3 8 11 -2 30 -23 19 -21 37 -49 40 -63z m393 -2 c-13
-13 -17 9 -10 50 l9 43 3 -44 c2 -23 1 -46 -2 -49z m-582 35 c-3 -9 -10 -17
-15 -17 -11 0 -12 34 -2 44 11 11 24 -9 17 -27z m-2699 -85 c44 -75 55 -112
34 -112 -19 0 -51 -90 -70 -199 -11 -58 -21 -110 -24 -116 -2 -5 -3 108 -2
251 1 144 5 260 10 257 4 -2 27 -39 52 -81z m2530 36 c10 -30 -4 -197 -20
-235 -14 -32 -34 -42 -126 -59 -18 -4 -48 -15 -65 -25 -33 -20 -64 -17 -64 7
0 8 -10 14 -25 14 -32 0 -50 29 -69 110 -22 90 -21 100 9 100 13 0 48 9 77 21
29 11 71 20 93 18 59 -3 62 -1 69 27 l7 27 23 -22 c27 -26 36 -26 36 -3 0 40
44 56 55 20z m-2945 -23 c15 -18 5 -35 -21 -35 -12 0 -19 7 -19 18 0 33 20 42
40 17z m-2279 -40 c66 -30 138 -73 177 -108 39 -35 29 -52 -51 -86 -89 -37
-240 -81 -276 -81 -16 0 -37 -10 -51 -25 -12 -13 -53 -34 -89 -46 -36 -12 -79
-32 -96 -44 -22 -16 -50 -24 -102 -28 -98 -8 -190 -32 -306 -80 l-98 -40 -189
62 c-189 62 -240 87 -226 109 4 7 27 12 52 12 27 0 63 9 92 24 26 13 133 53
237 89 263 91 568 203 604 221 16 9 45 16 63 16 18 0 51 9 73 20 52 25 103 21
186 -15z m1831 9 c46 -15 96 -33 112 -41 35 -18 32 -21 -75 -59 -41 -14 -83
-35 -95 -45 -27 -25 -32 -25 -129 17 -122 52 -135 73 -66 109 101 52 140 55
253 19z m3604 -9 c7 -19 14 -48 14 -64 0 -20 8 -35 22 -45 28 -20 45 -20 81
-1 15 8 44 14 62 13 20 -1 43 6 53 15 24 22 31 21 56 -2 19 -18 171 -97 256
-134 19 -8 43 -21 54 -29 18 -14 18 -16 -10 -35 -16 -11 -92 -55 -169 -98
-153 -84 -225 -131 -225 -145 0 -12 71 13 129 45 24 14 46 24 47 22 9 -9 -185
-187 -204 -187 -21 0 -24 5 -57 123 -9 33 -40 114 -70 180 -29 67 -58 140 -64
162 -12 44 -15 198 -4 208 11 11 13 9 29 -28z m-5891 5 c8 -13 -35 -13 -55 0
-11 7 -7 10 17 10 17 0 35 -4 38 -10z m2795 -71 c88 -26 152 -60 168 -90 25
-46 -9 -219 -47 -238 -83 -42 -128 -5 -156 131 -3 15 -35 62 -71 103 -69 79
-76 104 -34 116 29 8 53 4 140 -22z m-2002 -11 c48 -12 52 -20 20 -42 -36 -26
-85 -20 -119 13 -54 54 -32 60 99 29z m1118 -17 c82 -12 158 -50 267 -132 111
-84 191 -160 224 -211 13 -22 64 -90 112 -151 94 -119 114 -151 104 -161 -3
-3 -62 -6 -129 -6 -144 0 -144 0 -144 102 0 161 -179 376 -402 483 -104 50
-140 53 -229 17 -41 -16 -88 -32 -105 -36 -35 -8 -74 -40 -74 -60 0 -8 -17
-28 -37 -45 l-38 -30 33 -1 c18 0 51 9 73 21 23 11 43 18 46 15 29 -29 -191
-102 -235 -77 -16 9 -16 10 1 16 9 4 29 5 43 2 22 -4 25 -2 20 18 -4 15 2 32
16 50 l21 27 -21 41 c-36 71 -11 87 168 107 94 10 152 15 200 18 14 1 52 -2
86 -7z m2309 -47 c18 -39 10 -62 -19 -51 -28 11 -34 87 -7 87 5 0 16 -16 26
-36z m-2870 -110 c-19 -49 -63 -76 -159 -96 -48 -11 -58 -10 -72 4 -32 32 -2
57 130 103 27 10 63 30 80 46 30 26 31 27 34 7 2 -11 -4 -40 -13 -64z m507 65
c166 -56 324 -190 393 -333 36 -76 45 -131 31 -202 -7 -41 -7 -42 26 -52 18
-6 56 -14 83 -17 28 -4 57 -9 65 -12 14 -4 -94 -46 -243 -94 l-68 -21 -46 28
c-25 16 -47 33 -47 38 -1 5 31 20 69 33 94 31 109 50 102 133 -10 129 -28 165
-131 266 -102 100 -218 187 -274 205 -44 14 -57 24 -48 38 10 15 17 14 88 -10z
m1343 4 c12 -29 17 -296 6 -313 -5 -8 -12 -12 -16 -9 -17 18 -34 317 -18 332
11 12 20 8 28 -10z m1543 -5 c6 -7 13 -49 17 -93 6 -71 5 -82 -11 -97 -18 -16
-206 -88 -230 -88 -27 0 -43 142 -24 211 8 30 14 36 33 32 12 -2 54 8 92 21
79 29 108 32 123 14z m-1436 -109 c-2 -41 -9 -110 -16 -154 l-14 -80 -1 151
c-1 83 2 154 6 158 19 19 28 -6 25 -75z m-1560 55 c16 -10 8 -22 -19 -32 l-28
-9 27 -5 c14 -3 45 1 68 9 37 13 44 12 66 -2 14 -9 22 -20 19 -25 -7 -11 -211
-78 -250 -82 -22 -2 -30 -8 -28 -21 1 -15 -4 -17 -22 -13 -14 4 -39 -1 -59
-10 -37 -18 -66 -14 -66 9 0 14 56 42 132 66 52 17 88 48 88 76 0 24 -30 42
-49 30 -5 -3 -12 -1 -15 4 -4 5 2 12 11 15 20 5 112 -2 125 -10z m-974 -51
c-2 -13 -17 -20 -48 -24 -46 -7 -107 -29 -260 -93 -63 -26 -99 -36 -140 -35
l-55 0 30 16 c48 27 417 152 448 152 22 1 28 -3 25 -16z m2268 -100 c-4 -13
-18 -28 -31 -33 -17 -7 -23 -14 -18 -26 4 -12 2 -15 -8 -12 -25 8 -20 33 18
92 36 54 38 56 41 31 2 -15 1 -38 -2 -52z m-1075 47 c10 -6 19 -15 19 -20 0
-23 -317 -138 -395 -143 -35 -2 -40 1 -43 21 -2 14 3 24 15 28 10 4 68 26 128
49 186 73 238 85 276 65z m760 -13 c46 -31 96 -99 110 -150 24 -89 -31 -207
-96 -207 -64 0 -148 64 -170 129 -9 27 -33 69 -53 93 -71 83 -70 75 -16 100
75 33 147 57 170 58 12 0 36 -10 55 -23z m-1372 -80 c61 -40 76 -47 97 -47 30
0 58 -24 51 -44 -7 -19 -48 -21 -80 -5 -26 13 -117 100 -117 111 0 13 13 9 49
-15z m689 1 c17 -17 15 -52 -5 -71 -10 -8 -40 -24 -67 -34 -56 -20 -68 -37
-34 -47 45 -12 68 -7 68 14 0 39 76 54 119 24 29 -21 60 -89 61 -132 0 -24 -9
-42 -36 -70 -33 -34 -36 -31 -18 13 9 22 -8 19 -131 -22 -131 -43 -153 -56
-173 -103 l-15 -35 -17 55 c-9 30 -42 105 -74 165 -35 67 -55 116 -51 126 6
17 50 39 120 60 22 6 58 21 80 32 74 37 150 48 173 25z m-1243 -4 c12 -3 25
-15 30 -27 6 -12 20 -26 33 -32 29 -13 28 -22 -2 -27 -16 -3 -30 2 -40 14 -10
12 -29 18 -55 18 -75 0 -93 21 -38 45 36 16 44 17 72 9z m-555 -8 c0 -8 -212
-88 -510 -191 -162 -57 -365 -129 -450 -160 -85 -31 -274 -99 -420 -150 -146
-51 -358 -127 -472 -169 -114 -42 -238 -84 -275 -95 -38 -10 -86 -30 -108 -45
-39 -27 -75 -31 -82 -9 -4 12 129 83 157 83 10 0 60 16 111 35 51 20 113 40
138 46 24 5 75 23 111 39 102 45 1231 448 1585 566 140 47 215 64 215 50z
m1010 -11 c10 -12 9 -20 -4 -40 -19 -29 -52 -49 -72 -41 -19 7 -18 25 6 64 21
34 50 41 70 17z m1760 -56 c41 -22 81 -48 87 -56 20 -26 -8 -48 -84 -69 l-66
-18 27 -21 c34 -27 33 -35 -4 -35 -23 0 -35 8 -51 33 -17 27 -20 43 -15 103 6
72 13 104 25 104 3 0 40 -19 81 -41z m-2343 -51 c-35 -60 -51 -67 -80 -40 -29
27 -37 28 -37 3 0 -10 -10 -25 -21 -33 -21 -13 -20 -15 35 -62 60 -51 68 -74
40 -114 -21 -30 -59 -28 -103 7 -20 15 -47 32 -60 36 -21 6 -23 5 -18 -14 6
-24 -8 -29 -17 -5 -19 50 11 165 50 191 23 14 193 70 223 72 9 1 5 -12 -12
-41z m682 23 c18 -12 -24 -41 -61 -41 -62 0 -31 42 37 49 6 0 16 -3 24 -8z
m262 -41 c42 -42 37 -74 -12 -78 -44 -4 -99 37 -99 73 0 45 68 48 111 5z
m-1412 11 c12 -8 10 -15 -7 -46 -34 -56 -29 -68 41 -109 146 -86 311 -256 375
-386 32 -65 37 -85 37 -147 0 -80 -11 -103 -79 -157 -37 -30 -40 -31 -144 -30
-91 0 -118 5 -182 28 -88 33 -180 86 -197 115 -10 16 -10 23 3 35 30 30 66 33
222 20 l72 -6 15 36 c34 81 10 148 -74 210 -102 75 -200 97 -241 56 -11 -11
-20 -26 -20 -34 0 -19 -57 -66 -79 -66 -9 0 -34 -9 -56 -20 -30 -15 -41 -17
-47 -7 -13 20 -38 108 -50 178 -10 58 -9 73 6 114 25 63 73 109 131 124 25 6
57 22 70 35 23 23 25 23 30 5 8 -24 53 -59 76 -59 25 0 24 27 -1 35 -37 12
-15 52 40 74 32 12 42 13 59 2z m1280 -72 c27 -34 70 -98 95 -143 l46 -81 0
72 c0 39 5 84 10 99 10 26 11 26 31 9 31 -29 63 -147 55 -207 -6 -43 -4 -54
14 -73 l20 -21 -25 -24 c-14 -13 -25 -30 -25 -38 0 -7 -18 -21 -40 -29 -22 -9
-37 -20 -33 -26 9 -14 96 -1 150 23 73 32 83 45 83 107 0 65 22 93 75 93 38 0
98 -21 109 -39 4 -6 -17 -24 -49 -42 -30 -17 -58 -35 -61 -41 -11 -17 6 -23
28 -9 12 8 63 24 113 37 50 12 142 42 205 64 288 105 335 121 354 117 16 -3 7
-10 -35 -30 -109 -50 -946 -347 -979 -347 -5 0 -10 6 -10 14 0 19 -23 26 -90
26 -64 0 -75 8 -66 46 l7 26 21 -27 c14 -19 28 -25 47 -23 25 3 26 6 29 65 3
66 -1 74 -60 115 -17 11 -30 37 -42 82 -13 46 -34 87 -67 133 -55 73 -59 95
-27 117 41 29 64 20 117 -45z m-1139 17 c0 -31 -36 -76 -61 -76 -25 0 -24 24
3 63 36 53 58 57 58 13z m660 -10 c0 -22 -37 -44 -109 -66 -84 -26 -121 -26
-121 0 0 24 18 34 106 59 85 24 124 26 124 7z m-3523 -48 c12 -13 30 -38 41
-56 36 -60 369 -240 495 -266 61 -14 18 -55 -84 -81 -35 -9 -79 -26 -97 -37
-44 -27 -181 -38 -336 -26 -146 10 -219 4 -311 -29 -100 -36 -224 -103 -246
-135 -11 -14 -57 -52 -104 -84 l-85 -57 -102 43 c-57 24 -146 65 -198 91 -103
51 -321 196 -328 217 -6 20 102 63 495 196 203 69 400 137 438 151 112 42 306
94 356 94 35 1 50 -4 66 -21z m3284 -69 c87 -59 119 -95 119 -135 0 -40 -8
-42 -59 -12 -23 13 -45 19 -55 15 -26 -10 -6 -30 44 -47 74 -24 82 -87 21
-151 -41 -43 -61 -93 -61 -154 0 -41 7 -42 76 -14 60 24 83 -8 40 -58 -20 -24
-31 -27 -79 -27 -76 0 -87 11 -87 93 0 56 -4 73 -25 101 -26 36 -30 56 -16 79
7 11 12 3 22 -27 16 -54 29 -54 29 -1 0 28 -10 59 -30 94 l-30 52 21 27 c19
24 20 31 10 54 -7 14 -15 58 -18 96 -7 78 -14 77 78 15z m2107 19 c-3 -7 -26
-23 -51 -35 -28 -14 -47 -30 -48 -40 -4 -67 21 -128 79 -196 23 -27 42 -52 42
-57 0 -34 198 -198 342 -283 149 -88 163 -119 68 -150 -30 -10 -80 -28 -110
-42 -30 -13 -213 -77 -406 -143 -192 -66 -382 -134 -421 -151 -39 -17 -82 -31
-95 -31 -28 0 -128 46 -128 58 0 10 45 30 165 76 39 14 77 31 85 36 25 16 -2
26 -129 50 -476 86 -627 149 -739 307 -26 36 -71 97 -99 136 -48 64 -53 76
-53 122 0 55 12 75 45 75 12 0 30 7 41 15 44 33 47 1 4 -48 -50 -57 -34 -128
33 -145 27 -7 32 -13 32 -38 0 -21 5 -30 20 -32 20 -3 833 281 1013 353 90 36
127 63 166 119 10 16 33 34 50 42 40 17 99 18 94 2z m-3148 -45 c-1 -69 -16
-126 -40 -145 -11 -9 -46 -24 -78 -33 -75 -22 -134 -53 -129 -68 5 -17 49 -10
144 25 46 17 90 28 97 25 23 -9 70 -97 59 -108 -13 -13 -264 -128 -280 -129
-29 0 -38 45 -38 185 0 178 3 188 57 204 24 8 77 31 118 52 41 21 78 38 83 39
4 0 7 -21 7 -47z m-336 -370 c7 -31 6 -33 -22 -33 -40 0 -58 -24 -75 -99 -12
-50 -22 -69 -46 -88 -17 -14 -31 -33 -31 -44 0 -24 4 -24 48 6 20 14 41 25 47
25 6 0 48 -25 94 -55 92 -61 129 -72 189 -55 44 11 66 35 78 85 10 44 22 55
61 55 19 0 73 10 120 22 l84 22 42 -22 c48 -26 192 -132 256 -189 l44 -39 -84
-31 c-194 -71 -230 -68 -356 25 -84 62 -122 82 -154 82 -37 0 -15 -24 87 -93
54 -37 108 -74 119 -82 20 -13 20 -13 1 -28 -11 -8 -70 -32 -131 -53 l-111
-38 -170 121 c-189 135 -234 162 -234 139 0 -25 233 -207 292 -228 52 -18 46
-62 -9 -73 -20 -3 -77 -24 -127 -46 -75 -32 -93 -37 -107 -26 -10 6 -86 65
-171 131 -147 114 -231 167 -244 154 -11 -12 16 -46 66 -83 59 -43 80 -70 80
-103 0 -21 2 -22 15 -12 8 7 25 10 38 6 23 -5 171 -105 165 -111 -10 -10 -222
-95 -236 -95 -9 0 -66 37 -127 82 -60 44 -154 109 -207 144 -53 35 -103 73
-112 86 -14 20 -14 24 0 39 8 9 41 24 73 33 61 17 121 52 129 74 6 18 -32 15
-70 -7 -28 -17 -167 -61 -191 -61 -13 0 -90 168 -84 184 3 8 43 26 89 41 82
27 158 62 189 87 25 20 39 54 49 116 12 72 29 112 46 112 8 0 57 16 109 36
115 44 130 41 121 -22 -11 -86 -29 -108 -109 -139 -77 -31 -137 -65 -137 -79
0 -35 263 82 299 133 12 16 28 58 37 92 20 80 30 99 52 100 9 0 55 20 102 43
l85 44 16 -127 c9 -69 19 -141 23 -158z m1244 281 c26 -7 30 -39 6 -48 -9 -4
-28 1 -41 9 -20 13 -22 19 -12 31 13 16 15 16 47 8z m4193 -43 c41 -16 217
-89 390 -161 173 -73 406 -170 519 -215 113 -45 392 -161 620 -258 228 -96
478 -201 555 -232 166 -67 195 -84 172 -96 -36 -20 -572 -69 -759 -69 -59 0
-214 7 -345 15 -927 59 -2477 147 -2663 151 -124 3 -225 8 -224 12 2 14 93 51
284 117 107 37 323 111 480 165 157 54 311 106 343 115 32 9 83 30 114 46 30
16 68 29 84 29 16 0 58 12 92 26 34 15 146 57 250 95 212 77 227 84 227 104 0
18 -69 77 -152 128 -37 23 -67 45 -68 50 0 10 -4 11 81 -22z m-3011 -61 c0
-16 -4 -30 -10 -30 -11 0 -14 43 -3 53 11 12 13 8 13 -23z m-1642 -19 c21 -11
59 -42 85 -70 37 -39 47 -57 47 -84 0 -40 -19 -60 -52 -55 -20 3 -23 8 -20 46
5 78 -32 118 -104 110 -23 -2 -30 1 -32 18 -3 19 20 54 34 54 3 0 22 -9 42
-19z m-1468 -151 c23 -44 -31 -150 -77 -150 -10 0 -63 -20 -118 -45 -108 -49
-204 -78 -248 -76 -37 2 -75 22 -107 56 -24 26 -25 27 -6 41 21 15 153 68 200
80 l29 7 -7 -56 c-5 -37 -4 -57 4 -62 17 -10 20 -3 38 71 10 37 24 70 32 74
58 29 200 79 222 79 17 1 31 -6 38 -19z m2568 -10 c17 -11 32 -24 32 -30 0
-30 -139 -82 -222 -83 -42 -1 -53 -5 -74 -30 -50 -59 -25 -66 91 -27 114 39
137 39 133 3 -5 -41 -43 -61 -214 -114 -169 -52 -174 -53 -174 -41 0 5 68 32
150 62 83 29 158 59 168 66 33 26 -35 16 -110 -16 -38 -16 -80 -30 -92 -30
-34 0 -130 -52 -141 -77 -11 -26 -82 -60 -223 -108 -122 -41 -202 -75 -202
-86 0 -19 16 -15 265 64 189 61 545 185 602 211 87 40 100 55 83 106 -7 22
-10 43 -7 46 9 9 74 -33 81 -53 4 -9 4 -24 1 -34 -4 -11 -2 -19 4 -19 6 0 43
-30 82 -66 131 -120 350 -205 704 -275 l60 -12 -130 -44 c-71 -25 -269 -92
-440 -150 -170 -58 -364 -125 -430 -149 -66 -25 -142 -47 -170 -50 -105 -12
-412 47 -605 118 -150 54 -230 104 -276 169 -29 42 -25 59 12 59 30 0 103 36
110 55 3 7 -2 27 -10 44 -9 16 -16 35 -16 40 0 18 50 38 297 122 131 44 256
90 278 102 32 18 47 36 75 93 43 87 56 104 84 104 12 0 53 11 92 24 86 30 91
31 132 6z m-3694 -59 c16 -7 15 -9 -12 -20 -17 -7 -39 -22 -49 -33 -17 -19
-17 -20 2 -34 28 -20 193 -19 223 2 12 8 22 21 22 28 0 21 25 26 49 10 33 -23
27 -60 -14 -86 -19 -13 -35 -28 -35 -35 0 -6 24 -32 54 -58 l54 -46 60 36 c34
19 64 40 68 46 3 6 -4 21 -17 35 -41 44 -10 37 93 -21 161 -89 237 -143 319
-225 70 -70 83 -89 152 -233 42 -87 81 -175 87 -196 6 -22 15 -96 20 -166 13
-165 20 -190 80 -265 28 -34 50 -66 50 -71 0 -23 -215 -95 -327 -109 -40 -5
-82 -14 -93 -20 -27 -15 -60 -12 -60 4 0 8 23 41 50 72 53 60 75 117 65 163
-10 46 -43 89 -84 111 -44 22 -73 25 -101 10 -13 -7 -29 -5 -54 5 -39 17 -70
13 -127 -16 -91 -45 -291 -106 -821 -248 -103 -28 -211 -61 -239 -75 -29 -13
-57 -22 -65 -19 -7 2 -40 46 -73 98 -128 196 -274 292 -601 396 -89 29 -119
34 -197 34 -62 -1 -93 3 -93 10 0 14 47 58 125 118 33 25 73 60 89 77 16 17
56 45 90 62 33 17 107 62 164 99 57 38 112 69 122 69 27 0 119 -76 137 -115
10 -21 33 -43 62 -58 72 -39 297 -113 511 -168 132 -34 232 -66 310 -101 135
-59 169 -68 182 -44 19 34 289 196 327 196 13 0 14 16 2 39 -10 18 -162 150
-218 189 -38 27 -104 29 -183 6 -86 -25 -125 -27 -178 -10 -26 9 -65 32 -85
51 -44 42 -98 69 -262 135 -139 55 -240 104 -250 120 -13 21 8 51 73 100 99
75 253 149 332 160 67 9 230 3 264 -9z m9493 -86 c95 -48 200 -104 233 -126
33 -21 65 -39 71 -39 24 0 462 -228 472 -246 4 -8 26 -17 48 -20 22 -4 37 -10
32 -14 -4 -4 -75 -29 -157 -55 -140 -45 -151 -47 -160 -31 -26 43 -49 66 -67
66 -16 0 -19 -7 -19 -45 0 -38 -3 -45 -20 -45 -14 0 -22 10 -30 43 -20 80 -28
89 -160 154 -108 54 -612 285 -738 339 l-44 19 72 28 c39 15 92 30 118 34 26
3 58 12 72 20 44 24 98 8 277 -82z m-7569 38 c76 -61 101 -131 66 -181 -8 -12
-22 -22 -31 -22 -34 0 -101 51 -136 102 -43 65 -51 91 -37 119 17 31 89 22
138 -18z m7085 -103 c47 -28 114 -61 149 -74 103 -39 353 -164 345 -172 -3 -3
-90 30 -194 74 -103 45 -238 99 -300 122 -115 43 -150 67 -139 96 9 23 38 13
139 -46z m-423 -10 c0 -19 -17 -30 -37 -23 -17 6 -16 18 3 37 18 19 34 13 34
-14z m-5420 -3 c0 -11 -39 -37 -55 -37 -10 0 -5 26 7 38 16 16 48 15 48 -1z
m5780 -79 c0 -7 -5 -20 -10 -28 -8 -12 -10 -9 -10 13 0 15 5 27 10 27 6 0 10
-6 10 -12z m-8155 -28 c9 -16 12 -30 9 -30 -13 0 -44 33 -44 47 0 23 19 14 35
-17z m8045 17 c0 -17 -20 -37 -37 -37 -19 0 -16 27 5 39 23 14 32 13 32 -2z
m-9744 -32 c35 -23 29 -35 -16 -35 -40 0 -80 26 -80 51 0 16 65 5 96 -16z
m3689 8 c39 -19 41 -40 4 -35 -45 5 -94 52 -54 52 8 0 30 -8 50 -17z m-3522
-75 c-10 -11 -31 -27 -47 -35 -28 -15 -28 -13 12 32 23 26 43 53 43 59 1 6 4
1 6 -12 3 -14 -3 -32 -14 -44z m-335 27 c25 -31 47 -84 38 -92 -3 -4 -16 3
-29 15 -13 12 -36 22 -53 22 -33 0 -76 20 -78 35 -1 12 62 45 86 45 9 0 25
-11 36 -25z m477 -75 c13 -40 -40 -149 -61 -127 -4 4 -2 32 5 63 15 77 42 108
56 64z m-97 -9 c-1 -5 -23 -24 -48 -43 -25 -18 -54 -51 -64 -73 -11 -21 -21
-34 -24 -27 -7 23 33 87 76 119 43 32 67 42 60 24z m3322 -25 c5 -13 19 -31
31 -39 21 -15 21 -16 -22 -27 -24 -6 -71 -21 -104 -34 -33 -13 -72 -26 -87
-30 -16 -3 -28 -10 -28 -16 0 -15 34 -20 68 -10 44 12 68 2 165 -71 149 -113
281 -166 555 -224 92 -20 174 -38 182 -41 8 -4 -15 -15 -55 -26 -38 -10 -78
-26 -87 -35 -22 -20 -23 -61 -2 -91 32 -46 94 -15 94 47 0 20 4 31 8 25 13
-20 52 -35 72 -29 15 5 20 15 20 40 0 45 29 65 93 65 51 0 147 -43 147 -66 0
-18 -67 -46 -134 -54 -34 -5 -92 -22 -131 -39 -38 -17 -78 -31 -87 -31 -10 0
-52 -14 -94 -30 -42 -17 -79 -29 -81 -26 -9 9 8 26 26 26 10 0 24 7 31 15 11
13 9 20 -10 40 -13 14 -32 27 -42 31 -15 4 -18 12 -14 30 7 28 3 29 -74 10
-87 -22 -553 -178 -570 -192 -8 -6 -42 -17 -75 -24 -33 -6 -100 -24 -150 -40
-213 -68 -238 -74 -325 -74 -167 1 -492 113 -637 220 -98 73 -93 116 19 162
78 32 241 76 323 87 28 4 97 26 155 50 58 24 197 75 310 115 213 75 254 92
266 111 3 6 1 29 -7 51 -12 36 -11 41 10 61 18 18 35 23 106 26 80 3 85 4 85
25 0 42 35 51 50 12z m6656 -9 c-7 -29 -36 -45 -36 -20 0 18 30 56 38 49 2 -3
2 -16 -2 -29z m418 -120 c-3 -9 -10 -17 -15 -17 -11 0 -12 34 -2 44 11 11 24
-9 17 -27z m-9974 8 c7 -9 10 -27 7 -45 -7 -35 -53 -110 -67 -110 -13 0 -13 0
11 55 14 32 19 59 16 81 -6 37 10 46 33 19z m5445 4 c-9 -14 -55 -30 -66 -23
-6 3 -5 11 2 20 13 16 74 20 64 3z m-5572 -10 c-14 -14 -103 -40 -103 -30 0
11 68 40 95 40 13 1 16 -2 8 -10z m2620 -15 l-28 -25 60 6 c108 11 64 -9 -345
-154 -124 -44 -247 -89 -273 -100 l-49 -21 7 30 c6 26 4 30 -15 30 -31 0 -89
-29 -103 -52 -14 -21 -27 -24 -27 -5 0 40 95 81 160 71 43 -7 160 23 370 95
208 71 210 72 210 82 0 20 -62 5 -278 -66 -124 -41 -230 -74 -235 -72 -16 5
525 204 561 206 7 1 0 -11 -15 -25z m-1098 -48 c44 -35 111 -93 150 -128 80
-75 81 -72 -17 -140 -84 -59 -79 -74 12 -38 69 27 56 11 -24 -30 -77 -39 -96
-35 -96 17 0 56 -46 218 -85 302 -19 40 -35 75 -35 77 0 12 24 -3 95 -60z
m-792 -38 c29 -26 47 -47 41 -48 -16 0 -154 108 -154 121 0 15 56 -20 113 -73z
m-210 42 c-3 -12 0 -48 7 -81 14 -67 9 -83 -15 -46 -31 48 -32 147 -1 147 9 0
12 -7 9 -20z m4373 -1 c11 -18 -13 -34 -31 -19 -8 7 -15 16 -15 21 0 13 38 11
46 -2z m474 1 c0 -17 -51 -33 -64 -20 -8 8 -7 14 4 20 20 13 60 13 60 0z
m-5505 -11 c7 -11 -22 -49 -37 -49 -10 0 -11 44 -1 53 10 10 31 8 38 -4z
m5866 -16 c12 -32 2 -105 -17 -130 -13 -17 -15 -17 -29 1 -19 25 -19 77 -1
121 18 42 33 44 47 8z m-5315 -8 c9 -14 13 -32 9 -45 -9 -28 -22 -25 -29 8 -4
15 -9 35 -12 45 -8 25 13 21 32 -8z m5564 6 c5 -11 10 -40 10 -64 0 -82 -53
-87 -66 -6 -11 66 30 117 56 70z m270 -17 c12 -31 4 -85 -16 -111 -13 -17 -15
-17 -30 2 -26 34 -6 135 27 135 5 0 14 -12 19 -26z m-1260 8 c0 -14 -23 -32
-42 -32 -20 0 -25 26 -5 33 20 8 47 8 47 -1z m1584 -8 c21 -54 -10 -148 -40
-123 -16 14 -19 91 -4 120 13 23 36 25 44 3z m-6383 -61 c-9 -15 -10 -12 -11
18 0 20 3 39 8 43 11 12 14 -42 3 -61z m4600 46 c19 -7 40 -17 48 -24 11 -11
9 -16 -13 -30 -42 -28 -116 2 -116 47 0 21 29 24 81 7z m309 -22 c0 -15 -59
-52 -68 -42 -8 7 43 55 59 55 5 0 9 -6 9 -13z m1791 -84 c-9 -15 -10 -12 -11
17 0 19 4 46 8 60 6 21 7 19 10 -17 2 -24 -1 -51 -7 -60z m288 83 c19 -22 16
-95 -3 -114 -16 -16 -18 -16 -32 2 -16 23 -18 64 -4 100 11 29 22 33 39 12z
m246 -6 c10 -32 -19 -120 -40 -120 -28 0 -26 45 5 113 16 32 26 34 35 7z
m-1995 -44 c0 -68 -21 -92 -40 -45 -11 26 -11 36 3 65 24 49 37 42 37 -20z
m-780 16 c46 -22 46 -49 0 -73 -53 -29 -86 -25 -98 10 -6 16 -20 32 -31 36
-46 14 -9 44 54 45 22 0 56 -8 75 -18z m3091 -9 c12 -32 5 -65 -18 -88 -16
-16 -18 -16 -31 1 -12 18 -10 82 4 106 11 17 35 7 45 -19z m-2773 -12 c-5 -24
-38 -27 -38 -3 0 10 3 21 6 25 11 11 35 -5 32 -22z m5082 -1 c0 -16 -4 -30
-10 -30 -11 0 -14 43 -3 53 11 12 13 8 13 -23z m-2059 -73 c-13 -13 -15 24 -3
63 6 22 7 21 10 -14 2 -21 -1 -43 -7 -49z m304 63 c7 -23 -4 -108 -15 -115
-15 -9 -44 37 -44 70 0 55 45 89 59 45z m283 -2 c29 -29 -5 -134 -36 -114 -26
16 -10 126 18 126 3 0 11 -5 18 -12z m-8137 -71 c-8 -8 -11 -1 -11 24 0 46 14
60 18 19 2 -18 -1 -37 -7 -43z m9349 49 c0 -14 -4 -28 -10 -31 -6 -4 -10 7
-10 24 0 17 5 31 10 31 6 0 10 -11 10 -24z m-850 -1 c15 -18 6 -78 -15 -95
-25 -21 -48 7 -41 48 5 34 22 62 36 62 4 0 13 -7 20 -15z m-4508 -5 c76 -21
65 -71 -18 -85 -38 -6 -44 -3 -78 28 -20 19 -36 39 -36 45 0 21 74 28 132 12z
m4832 -16 c11 -28 6 -51 -13 -68 -26 -23 -41 -13 -41 28 0 48 40 78 54 40z
m296 -13 c0 -17 -4 -33 -10 -36 -6 -4 -10 8 -10 29 0 20 5 36 10 36 6 0 10
-13 10 -29z m-5310 -43 c56 -29 60 -56 10 -74 -60 -22 -103 -17 -148 16 -23
17 -42 36 -42 44 0 15 55 33 105 35 17 1 51 -9 75 -21z m275 -67 c-6 -4 -26
-11 -45 -15 -32 -5 -34 -5 -16 9 21 16 77 22 61 6z m-5723 -66 l-37 -35 28
-25 c15 -13 46 -29 70 -35 106 -27 183 -56 242 -91 35 -22 68 -39 72 -39 4 0
42 23 83 50 41 27 84 50 96 50 21 0 104 -56 104 -70 0 -5 -25 -16 -56 -25 -65
-19 -114 -61 -114 -98 0 -36 41 -90 75 -100 41 -12 135 24 187 71 42 38 63 34
56 -9 -2 -17 -31 -43 -99 -90 -53 -36 -111 -71 -129 -78 -51 -17 -118 -13
-166 11 -43 21 -142 112 -200 184 -32 39 -181 136 -212 139 -10 0 -38 11 -64
23 -61 30 -139 34 -167 8 -17 -15 -21 -16 -21 -4 0 35 133 184 172 191 12 2
44 5 70 6 l48 1 -38 -35z m158 -3 c0 -13 -30 -52 -41 -52 -10 0 -13 43 -2 53
9 10 43 9 43 -1z m105 -51 c8 -13 -33 -34 -52 -27 -12 5 -13 9 -3 21 14 17 46
20 55 6z m122 -65 c-5 -14 -57 -21 -57 -7 0 14 31 30 47 24 8 -3 12 -11 10
-17z m4237 -30 c20 -15 36 -32 36 -37 0 -16 -81 -49 -120 -49 -24 0 -52 11
-88 35 -28 20 -52 39 -52 43 0 4 19 15 43 25 61 24 136 18 181 -17z m360 -5
c21 -23 6 -37 -23 -21 -12 6 -18 16 -15 25 8 20 17 19 38 -4z m-2071 -42 c34
-17 93 -52 131 -76 l69 -45 -21 -20 c-30 -30 -55 -19 -152 67 -46 42 -97 79
-112 82 -15 3 -28 9 -28 14 0 18 53 8 113 -22z m1957 2 c0 -15 -65 -51 -91
-51 l-23 0 24 18 c47 33 90 49 90 33z m-457 -38 c45 -18 63 -29 55 -35 -34
-21 -141 -49 -165 -43 -31 7 -113 62 -113 75 0 15 92 39 125 34 17 -3 61 -17
98 -31z m-4429 -2 c3 -4 -1 -17 -9 -27 -14 -18 -14 -18 -15 9 0 26 13 36 24
18z m-194 -18 c0 -10 -5 -25 -10 -33 -7 -11 -10 -7 -10 18 0 17 5 32 10 32 6
0 10 -8 10 -17z m2438 -20 c5 -31 -15 -63 -38 -63 -15 0 -20 7 -20 29 0 45 10
62 34 59 13 -2 22 -11 24 -25z m-1545 -14 c18 -28 -1 -69 -38 -85 -31 -12 -39
-12 -70 0 -29 12 -35 20 -35 44 0 16 8 36 18 45 32 29 106 26 125 -4z m3444
-4 c28 -14 58 -34 68 -45 18 -19 17 -20 -31 -42 -72 -32 -100 -28 -172 21 -35
23 -61 46 -57 49 10 11 98 40 121 41 11 1 43 -10 71 -24z m-4247 -4 c0 -11 -4
-23 -10 -26 -6 -4 -10 5 -10 19 0 14 5 26 10 26 6 0 10 -9 10 -19z m230 -15
c0 -14 -4 -28 -10 -31 -6 -4 -10 7 -10 24 0 17 5 31 10 31 6 0 10 -11 10 -24z
m-102 -38 c-2 -28 -8 -34 -30 -36 -34 -4 -36 13 -6 45 30 32 40 29 36 -9z
m2052 7 c0 -15 -18 -30 -27 -22 -2 3 -2 15 2 26 7 23 25 19 25 -4z m1473 -81
c97 -34 177 -75 177 -92 0 -5 -6 -17 -14 -27 -25 -34 -105 -24 -200 24 -86 44
-237 148 -243 168 -5 14 126 -20 280 -73z m378 46 c40 -21 59 -36 57 -46 -4
-20 -110 -64 -153 -64 -22 0 -44 11 -73 36 -23 19 -42 40 -42 45 0 14 92 58
123 59 15 0 55 -14 88 -30z m-686 -39 c33 -16 73 -40 90 -54 25 -21 28 -27 16
-41 -7 -9 -23 -16 -35 -16 -55 1 -176 84 -176 121 0 28 34 24 105 -10z m-1405
-56 c0 -15 -18 -30 -27 -22 -2 3 -2 15 2 26 7 23 25 19 25 -4z m264 -1 c11
-28 6 -64 -11 -97 l-18 -32 -3 49 c-5 77 15 126 32 80z m-1218 -79 c-8 -23
-25 -9 -19 16 4 13 9 17 16 10 5 -5 7 -17 3 -26z m2600 -10 c51 -21 44 -50
-12 -49 -38 0 -104 36 -104 56 0 13 78 9 116 -7z m-1895 -75 c-9 -23 -10 -23
-10 12 -1 20 2 45 7 55 6 14 8 12 10 -12 2 -17 -1 -42 -7 -55z m-2056 -15 c77
-49 183 -143 201 -177 18 -35 20 -137 4 -168 -12 -23 -44 -25 -122 -9 -159 34
-248 122 -248 244 0 65 19 116 51 139 28 19 46 14 114 -29z m1903 8 c6 -16 14
-40 18 -55 9 -40 -21 -37 -35 3 -22 64 -6 111 17 52z m-528 -8 c0 -14 -4 -25
-10 -25 -5 0 -10 11 -10 25 0 14 5 25 10 25 6 0 10 -11 10 -25z m-114 -27 c18
-34 11 -78 -11 -78 -21 0 -38 48 -30 88 7 37 18 34 41 -10z m-146 -13 c0 -15
-18 -30 -27 -22 -2 3 -2 15 2 26 7 23 25 19 25 -4z m-720 -56 c0 -16 -15 -9
-47 22 -44 40 -41 45 7 13 22 -15 40 -31 40 -35z"/>
<path d="M8445 3031 c-13 -22 -11 -159 3 -173 23 -23 34 11 27 86 -6 74 -17
107 -30 87z"/>
<path d="M9876 2903 c-3 -3 -6 -33 -6 -65 0 -45 4 -60 17 -65 22 -8 53 31 53
67 0 32 -47 79 -64 63z"/>
<path d="M9777 2883 c-11 -11 -7 -76 7 -108 l13 -30 13 57 c11 46 11 60 0 73
-14 16 -23 19 -33 8z"/>
<path d="M9640 2843 c-43 -16 -71 -46 -68 -72 3 -24 6 -26 50 -25 32 0 54 6
69 20 28 25 39 56 27 72 -11 12 -51 15 -78 5z"/>
<path d="M8720 3171 c-21 -40 -9 -101 20 -101 21 0 30 19 30 64 0 50 -30 73
-50 37z"/>
<path d="M10358 3234 c-5 -4 -8 -21 -8 -38 0 -21 3 -27 11 -19 6 6 9 23 7 38
-2 15 -6 23 -10 19z"/>
<path d="M10142 3204 c-25 -17 -28 -42 -8 -69 12 -17 18 -18 40 -7 20 9 26 19
26 41 0 39 -28 56 -58 35z"/>
<path d="M10250 3189 c0 -17 4 -28 10 -24 6 3 10 17 10 31 0 13 -4 24 -10 24
-5 0 -10 -14 -10 -31z"/>
<path d="M6530 2695 c-7 -8 -10 -22 -6 -31 5 -13 11 -13 46 7 22 13 40 26 40
31 0 14 -67 9 -80 -7z"/>
<path d="M6770 2631 c-114 -39 -201 -79 -174 -80 47 -2 304 86 304 103 0 13
-50 4 -130 -23z"/>
<path d="M6390 2340 c-21 -29 -39 -100 -26 -100 20 0 68 34 75 53 9 23 -5 77
-19 77 -5 0 -18 -13 -30 -30z"/>
<path d="M3971 2196 c-101 -41 -119 -56 -70 -56 63 0 199 55 199 80 0 18 -45
10 -129 -24z"/>
<path d="M3832 2049 c3 -8 11 -44 18 -82 17 -83 16 -83 -95 -126 -97 -37 -148
-67 -142 -84 2 -7 8 -11 13 -9 5 1 54 17 109 36 106 37 157 76 171 131 7 29
-41 136 -65 143 -9 3 -12 -1 -9 -9z"/>
<path d="M3500 1892 c0 -32 6 -66 13 -76 16 -22 50 -17 55 7 4 21 -45 127 -59
127 -5 0 -9 -26 -9 -58z"/>
<path d="M9740 2083 c-14 -2 -77 -18 -140 -35 -116 -30 -163 -49 -175 -68 -8
-13 166 -96 350 -168 72 -28 175 -69 230 -90 l99 -40 66 19 c36 10 88 27 115
39 28 12 72 26 99 31 95 18 125 58 59 79 -21 7 -159 61 -308 121 -262 105
-332 125 -395 112z"/>
<path d="M9273 1895 c-77 -39 -119 -76 -110 -99 8 -20 50 -20 137 -1 36 8 83
14 105 15 36 0 45 -5 78 -44 52 -63 12 -77 -57 -19 -22 18 -31 21 -42 12 -21
-17 -17 -35 13 -59 22 -17 38 -20 97 -18 l71 3 5 40 c10 72 30 83 72 38 32
-35 45 -72 26 -77 -54 -16 -108 -39 -108 -47 0 -12 74 -11 125 1 78 19 167 29
188 20 20 -7 19 -9 -18 -25 -104 -44 -125 -55 -125 -64 0 -28 158 6 228 49 34
21 42 44 17 54 -8 3 -54 10 -102 17 -115 15 -133 22 -133 54 0 30 -30 52 -87
61 -23 3 -57 17 -75 30 -25 19 -45 24 -90 24 -56 0 -59 1 -79 35 -27 45 -47
45 -136 0z m67 -60 c0 -10 -10 -15 -30 -15 -47 0 -35 27 13 29 9 1 17 -6 17
-14z"/>
<path d="M5466 1812 c-9 -11 -42 -25 -74 -32 -73 -16 -242 -76 -256 -91 -19
-19 68 0 199 43 126 42 198 76 189 90 -9 14 -40 9 -58 -10z"/>
<path d="M2148 1850 c-42 -23 -69 -56 -61 -76 17 -45 133 23 133 78 0 23 -25
22 -72 -2z"/>
<path d="M2693 1677 c-40 -23 -72 -45 -73 -48 0 -11 115 -41 145 -37 22 2 31
9 33 25 4 26 -16 103 -26 102 -4 0 -39 -19 -79 -42z"/>
<path d="M2981 1633 c-30 -25 -45 -82 -24 -90 18 -7 82 24 128 62 25 21 28 26
15 35 -24 16 -96 12 -119 -7z"/>
<path d="M3246 1278 c-9 -34 -7 -88 2 -88 16 0 42 36 42 57 0 11 -8 28 -19 37
-17 16 -19 16 -25 -6z"/>
<path d="M1324 1262 c-46 -37 -50 -82 -8 -82 26 0 67 52 61 80 -3 21 -29 23
-53 2z"/>
<path d="M3074 1249 c-27 -31 -113 -69 -156 -69 -31 0 -38 -4 -46 -27 l-9 -28
-19 32 c-22 39 -31 41 -36 11 -2 -19 -9 -23 -43 -24 -51 -1 -92 -22 -137 -72
-32 -35 -77 -127 -67 -136 2 -3 33 13 69 35 39 23 78 39 96 39 19 0 34 6 38
15 3 8 18 15 33 15 16 0 55 13 88 30 33 16 72 30 87 30 14 0 28 5 30 12 3 7
18 12 34 13 22 0 30 5 32 23 4 27 13 28 30 2 16 -27 29 -25 36 5 7 29 18 32
36 10 18 -22 30 -9 30 35 0 29 -6 43 -22 54 -32 23 -81 20 -104 -5z"/>
<path d="M1763 1245 c-99 -27 -193 -89 -193 -127 0 -27 95 -124 215 -221 160
-128 163 -130 221 -117 191 41 310 102 285 147 -27 52 -284 259 -382 309 -55
27 -73 28 -146 9z m60 -66 c31 -8 38 -14 35 -32 -5 -34 -38 -34 -65 -1 l-23
29 0 -31 c0 -42 16 -53 80 -55 58 -2 80 14 80 57 0 35 17 38 45 8 50 -54 25
-90 -79 -114 -37 -8 -54 -7 -82 5 -45 19 -54 19 -54 1 0 -27 -27 -39 -59 -26
-42 17 -64 45 -64 80 0 69 88 106 186 79z m328 -176 c49 -52 68 -83 62 -99 -4
-11 -148 -74 -170 -74 -4 0 7 13 25 29 37 35 43 75 12 91 -26 14 -75 -1 -141
-42 -25 -15 -52 -28 -60 -28 -24 1 -83 56 -76 72 9 24 93 48 189 55 59 4 89
10 92 19 9 23 30 16 67 -23z"/>
<path d="M1094 1196 c-12 -31 0 -61 26 -64 21 -2 29 4 42 32 9 18 14 37 11 40
-13 12 -74 6 -79 -8z"/>
<path d="M1285 1135 c-3 -8 -7 -22 -10 -30 -2 -8 1 -17 6 -21 13 -7 59 34 59
53 0 18 -50 17 -55 -2z"/>
<path d="M4207 1993 c-23 -23 12 -73 51 -73 25 0 21 22 -11 58 -22 23 -29 26
-40 15z"/>
<path d="M4838 1590 c-15 -4 -37 -16 -50 -25 -23 -17 -23 -17 12 -10 51 11 80
23 80 35 0 11 -4 11 -42 0z"/>
<path d="M3540 1230 c-13 -9 -13 -12 3 -25 23 -17 49 -9 45 14 -4 19 -28 25
-48 11z"/>
</g>
</svg>
